<mxfile host="65bd71144e">
    <diagram id="iqNBcv5D5UAEnluReGte" name="Page-1">
        <mxGraphModel dx="1096" dy="696" grid="1" gridSize="10" guides="1" tooltips="1" connect="1" arrows="1" fold="1" page="1" pageScale="1" pageWidth="1169" pageHeight="827" math="0" shadow="0">
            <root>
                <mxCell id="0"/>
                <mxCell id="1" parent="0"/>
                <mxCell id="KxlWeBCbH4CNowEoGFHw-4" value="" style="ellipse;whiteSpace=wrap;html=1;aspect=fixed;strokeWidth=3;fillColor=#dae8fc;strokeColor=#6c8ebf;" parent="1" vertex="1">
                    <mxGeometry x="17" y="310.99" width="20" height="20" as="geometry"/>
                </mxCell>
                <mxCell id="KxlWeBCbH4CNowEoGFHw-6" value="Repo Quickstart" style="text;html=1;strokeColor=none;fillColor=none;align=left;verticalAlign=middle;whiteSpace=wrap;rounded=0;shadow=0;rotation=315;fontColor=#B3B3B3;fontSize=24;" parent="1" vertex="1">
                    <mxGeometry x="-3.15" y="205.5" width="189.3" height="20" as="geometry"/>
                </mxCell>
                <mxCell id="KxlWeBCbH4CNowEoGFHw-7" value="" style="endArrow=none;html=1;strokeWidth=3;entryX=1;entryY=0.5;entryDx=0;entryDy=0;exitX=0;exitY=0.5;exitDx=0;exitDy=0;strokeColor=#999999;startArrow=none;" parent="1" source="3" target="KxlWeBCbH4CNowEoGFHw-4" edge="1">
                    <mxGeometry width="50" height="50" relative="1" as="geometry">
                        <mxPoint x="127" y="320" as="sourcePoint"/>
                        <mxPoint x="77" y="330" as="targetPoint"/>
                    </mxGeometry>
                </mxCell>
                <mxCell id="KxlWeBCbH4CNowEoGFHw-25" style="edgeStyle=entityRelationEdgeStyle;rounded=1;orthogonalLoop=1;jettySize=auto;html=1;entryX=0;entryY=0.5;entryDx=0;entryDy=0;endArrow=none;endFill=0;strokeWidth=3;fontColor=#B3B3B3;exitX=1;exitY=0.5;exitDx=0;exitDy=0;strokeColor=#999999;" parent="1" source="KxlWeBCbH4CNowEoGFHw-8" target="KxlWeBCbH4CNowEoGFHw-24" edge="1">
                    <mxGeometry relative="1" as="geometry"/>
                </mxCell>
                <mxCell id="KxlWeBCbH4CNowEoGFHw-8" value="" style="ellipse;whiteSpace=wrap;html=1;aspect=fixed;strokeWidth=3;strokeColor=#0066CC;" parent="1" vertex="1">
                    <mxGeometry x="350" y="310.99" width="20" height="20" as="geometry"/>
                </mxCell>
                <mxCell id="KxlWeBCbH4CNowEoGFHw-51" style="edgeStyle=entityRelationEdgeStyle;rounded=1;orthogonalLoop=1;jettySize=auto;html=1;entryX=0;entryY=0.5;entryDx=0;entryDy=0;endArrow=none;endFill=0;strokeWidth=3;fontColor=#B3B3B3;strokeColor=#999999;exitX=1;exitY=0.5;exitDx=0;exitDy=0;" parent="1" source="KxlWeBCbH4CNowEoGFHw-12" target="KxlWeBCbH4CNowEoGFHw-35" edge="1">
                    <mxGeometry relative="1" as="geometry">
                        <mxPoint x="800" y="320" as="sourcePoint"/>
                    </mxGeometry>
                </mxCell>
                <mxCell id="KxlWeBCbH4CNowEoGFHw-52" style="edgeStyle=entityRelationEdgeStyle;rounded=1;orthogonalLoop=1;jettySize=auto;html=1;endArrow=none;endFill=0;strokeWidth=3;fontColor=#B3B3B3;strokeColor=#999999;exitX=1;exitY=0.5;exitDx=0;exitDy=0;" parent="1" source="KxlWeBCbH4CNowEoGFHw-12" target="KxlWeBCbH4CNowEoGFHw-53" edge="1">
                    <mxGeometry relative="1" as="geometry">
                        <mxPoint x="1191.19" y="322.81" as="targetPoint"/>
                        <mxPoint x="807.6399999999999" y="323.8" as="sourcePoint"/>
                    </mxGeometry>
                </mxCell>
                <mxCell id="KxlWeBCbH4CNowEoGFHw-18" value="Templates &amp;amp; Policies" style="text;html=1;strokeColor=none;fillColor=none;align=left;verticalAlign=middle;whiteSpace=wrap;rounded=0;shadow=0;rotation=315;fontColor=#99CCFF;fontStyle=0;fontSize=28;" parent="1" vertex="1">
                    <mxGeometry x="300.79" y="160.49" width="319.42" height="20" as="geometry"/>
                </mxCell>
                <mxCell id="KxlWeBCbH4CNowEoGFHw-19" value="Security" style="text;html=1;strokeColor=none;fillColor=none;align=right;verticalAlign=middle;whiteSpace=wrap;rounded=0;shadow=0;rotation=315;fontColor=#B3B3B3;fontSize=24;" parent="1" vertex="1">
                    <mxGeometry x="778.9999999999999" y="463.27" width="120" height="20" as="geometry"/>
                </mxCell>
                <mxCell id="KxlWeBCbH4CNowEoGFHw-21" value="" style="ellipse;whiteSpace=wrap;html=1;aspect=fixed;strokeWidth=3;fillColor=#CCCCCC;strokeColor=#4D4D4D;" parent="1" vertex="1">
                    <mxGeometry x="668.99" y="227.39000000000004" width="20" height="20" as="geometry"/>
                </mxCell>
                <mxCell id="KxlWeBCbH4CNowEoGFHw-37" style="edgeStyle=entityRelationEdgeStyle;rounded=1;orthogonalLoop=1;jettySize=auto;html=1;endArrow=none;endFill=0;strokeWidth=3;fontColor=#B3B3B3;strokeColor=#999999;" parent="1" source="KxlWeBCbH4CNowEoGFHw-23" target="KxlWeBCbH4CNowEoGFHw-21" edge="1">
                    <mxGeometry relative="1" as="geometry">
                        <mxPoint x="668.9899999999998" y="237.39" as="targetPoint"/>
                    </mxGeometry>
                </mxCell>
                <mxCell id="KxlWeBCbH4CNowEoGFHw-23" value="" style="ellipse;whiteSpace=wrap;html=1;aspect=fixed;strokeWidth=3;fillColor=#CCCCCC;strokeColor=#4D4D4D;" parent="1" vertex="1">
                    <mxGeometry x="588.9899999999999" y="227.39000000000001" width="20" height="20" as="geometry"/>
                </mxCell>
                <mxCell id="KxlWeBCbH4CNowEoGFHw-36" style="edgeStyle=entityRelationEdgeStyle;rounded=1;orthogonalLoop=1;jettySize=auto;html=1;endArrow=none;endFill=0;strokeWidth=3;fontColor=#B3B3B3;strokeColor=#999999;" parent="1" source="KxlWeBCbH4CNowEoGFHw-24" target="KxlWeBCbH4CNowEoGFHw-23" edge="1">
                    <mxGeometry relative="1" as="geometry"/>
                </mxCell>
                <mxCell id="KxlWeBCbH4CNowEoGFHw-24" value="" style="ellipse;whiteSpace=wrap;html=1;aspect=fixed;strokeWidth=3;fillColor=#CCCCCC;strokeColor=#4D4D4D;" parent="1" vertex="1">
                    <mxGeometry x="508.99" y="227.39000000000001" width="20" height="20" as="geometry"/>
                </mxCell>
                <mxCell id="KxlWeBCbH4CNowEoGFHw-29" value="Default Files" style="text;html=1;strokeColor=none;fillColor=none;align=left;verticalAlign=middle;whiteSpace=wrap;rounded=0;shadow=0;rotation=315;fontColor=#B3B3B3;fontSize=24;" parent="1" vertex="1">
                    <mxGeometry x="650" y="137.45" width="160.93" height="20" as="geometry"/>
                </mxCell>
                <mxCell id="KxlWeBCbH4CNowEoGFHw-30" value="Repo, Issues &amp;amp; PR's" style="text;html=1;strokeColor=none;fillColor=none;align=left;verticalAlign=middle;whiteSpace=wrap;rounded=0;shadow=0;rotation=315;fontColor=#B3B3B3;fontSize=24;" parent="1" vertex="1">
                    <mxGeometry x="485.79" y="110.07" width="241.15" height="20" as="geometry"/>
                </mxCell>
                <mxCell id="KxlWeBCbH4CNowEoGFHw-31" value="Repo Policies" style="text;html=1;strokeColor=none;fillColor=none;align=left;verticalAlign=middle;whiteSpace=wrap;rounded=0;shadow=0;rotation=315;fontColor=#B3B3B3;fontSize=24;" parent="1" vertex="1">
                    <mxGeometry x="565.74" y="124.17" width="200" height="20" as="geometry"/>
                </mxCell>
                <mxCell id="KxlWeBCbH4CNowEoGFHw-48" style="edgeStyle=entityRelationEdgeStyle;rounded=1;orthogonalLoop=1;jettySize=auto;html=1;entryX=0;entryY=0.5;entryDx=0;entryDy=0;endArrow=none;endFill=0;strokeWidth=3;fontColor=#B3B3B3;strokeColor=#999999;" parent="1" source="KxlWeBCbH4CNowEoGFHw-35" target="KxlWeBCbH4CNowEoGFHw-42" edge="1">
                    <mxGeometry relative="1" as="geometry"/>
                </mxCell>
                <mxCell id="KxlWeBCbH4CNowEoGFHw-35" value="" style="ellipse;whiteSpace=wrap;html=1;aspect=fixed;strokeWidth=3;fillColor=#CCCCCC;strokeColor=#4D4D4D;" parent="1" vertex="1">
                    <mxGeometry x="869" y="389.27" width="20" height="20" as="geometry"/>
                </mxCell>
                <mxCell id="KxlWeBCbH4CNowEoGFHw-41" value="Compliance" style="text;html=1;strokeColor=none;fillColor=none;align=right;verticalAlign=middle;whiteSpace=wrap;rounded=0;shadow=0;rotation=315;fontColor=#B3B3B3;fontSize=24;" parent="1" vertex="1">
                    <mxGeometry x="905.86" y="477.41" width="160" height="20" as="geometry"/>
                </mxCell>
                <mxCell id="KxlWeBCbH4CNowEoGFHw-49" style="edgeStyle=entityRelationEdgeStyle;rounded=1;orthogonalLoop=1;jettySize=auto;html=1;entryX=0;entryY=0.5;entryDx=0;entryDy=0;endArrow=none;endFill=0;strokeWidth=3;fontColor=#B3B3B3;strokeColor=#999999;" parent="1" source="KxlWeBCbH4CNowEoGFHw-42" target="KxlWeBCbH4CNowEoGFHw-44" edge="1">
                    <mxGeometry relative="1" as="geometry"/>
                </mxCell>
                <mxCell id="KxlWeBCbH4CNowEoGFHw-42" value="" style="ellipse;whiteSpace=wrap;html=1;aspect=fixed;strokeWidth=3;fillColor=#CCCCCC;strokeColor=#4D4D4D;" parent="1" vertex="1">
                    <mxGeometry x="948.9299999999998" y="389.27" width="20" height="20" as="geometry"/>
                </mxCell>
                <mxCell id="KxlWeBCbH4CNowEoGFHw-43" value="Collaboration" style="text;html=1;strokeColor=none;fillColor=none;align=right;verticalAlign=middle;whiteSpace=wrap;rounded=0;shadow=0;rotation=315;fontColor=#B3B3B3;fontSize=24;" parent="1" vertex="1">
                    <mxGeometry x="981.26" y="477.81" width="169.93" height="20" as="geometry"/>
                </mxCell>
                <mxCell id="KxlWeBCbH4CNowEoGFHw-50" style="edgeStyle=entityRelationEdgeStyle;rounded=1;orthogonalLoop=1;jettySize=auto;html=1;endArrow=none;endFill=0;strokeWidth=3;fontColor=#B3B3B3;strokeColor=#999999;" parent="1" source="KxlWeBCbH4CNowEoGFHw-44" target="KxlWeBCbH4CNowEoGFHw-46" edge="1">
                    <mxGeometry relative="1" as="geometry"/>
                </mxCell>
                <mxCell id="KxlWeBCbH4CNowEoGFHw-44" value="" style="ellipse;whiteSpace=wrap;html=1;aspect=fixed;strokeWidth=3;fillColor=#CCCCCC;strokeColor=#4D4D4D;" parent="1" vertex="1">
                    <mxGeometry x="1029.9299999999998" y="389.27" width="20" height="20" as="geometry"/>
                </mxCell>
                <mxCell id="KxlWeBCbH4CNowEoGFHw-45" value="Protection" style="text;html=1;strokeColor=none;fillColor=none;align=right;verticalAlign=middle;whiteSpace=wrap;rounded=0;shadow=0;rotation=315;fontColor=#B3B3B3;fontSize=24;" parent="1" vertex="1">
                    <mxGeometry x="861.2599999999999" y="465.27" width="120" height="20" as="geometry"/>
                </mxCell>
                <mxCell id="KxlWeBCbH4CNowEoGFHw-46" value="" style="ellipse;whiteSpace=wrap;html=1;aspect=fixed;strokeWidth=3;fillColor=#CCCCCC;strokeColor=#4D4D4D;" parent="1" vertex="1">
                    <mxGeometry x="1108.9299999999998" y="389.27" width="20" height="20" as="geometry"/>
                </mxCell>
                <mxCell id="KxlWeBCbH4CNowEoGFHw-47" value="Repo Best Practices" style="text;html=1;strokeColor=none;fillColor=none;align=left;verticalAlign=middle;whiteSpace=wrap;rounded=0;shadow=0;rotation=315;fontColor=#99CCFF;fontStyle=0;fontSize=28;" parent="1" vertex="1">
                    <mxGeometry x="710.18" y="175.82" width="290" height="20" as="geometry"/>
                </mxCell>
                <mxCell id="KxlWeBCbH4CNowEoGFHw-53" value="" style="ellipse;whiteSpace=wrap;html=1;aspect=fixed;strokeWidth=3;strokeColor=#d79b00;fillColor=#ffe6cc;" parent="1" vertex="1">
                    <mxGeometry x="1269.19" y="310" width="20" height="20" as="geometry"/>
                </mxCell>
                <mxCell id="KxlWeBCbH4CNowEoGFHw-54" value="Repository Demo" style="text;html=1;strokeColor=none;fillColor=none;align=left;verticalAlign=middle;whiteSpace=wrap;rounded=0;shadow=0;rotation=315;fontColor=#99CCFF;fontStyle=0;fontSize=28;" parent="1" vertex="1">
                    <mxGeometry x="1244.69" y="197.38" width="218.99" height="20" as="geometry"/>
                </mxCell>
                <mxCell id="11" style="edgeStyle=entityRelationEdgeStyle;html=1;endArrow=none;endFill=0;strokeWidth=3;strokeColor=#999999;" parent="1" source="3" target="5" edge="1">
                    <mxGeometry relative="1" as="geometry">
                        <mxPoint x="227" y="120" as="targetPoint"/>
                    </mxGeometry>
                </mxCell>
                <mxCell id="4" value="Branch Strategies" style="text;html=1;strokeColor=none;fillColor=none;align=left;verticalAlign=middle;whiteSpace=wrap;rounded=0;shadow=0;rotation=315;fontColor=#99CCFF;fontStyle=0;fontSize=28;" parent="1" vertex="1">
                    <mxGeometry x="77.69" y="174.4" width="280" height="20" as="geometry"/>
                </mxCell>
                <mxCell id="15" style="edgeStyle=entityRelationEdgeStyle;html=1;entryX=0.5;entryY=0.5;entryDx=0;entryDy=0;entryPerimeter=0;strokeColor=#999999;strokeWidth=3;endArrow=none;endFill=0;" parent="1" source="5" target="8" edge="1">
                    <mxGeometry relative="1" as="geometry"/>
                </mxCell>
                <mxCell id="5" value="" style="ellipse;whiteSpace=wrap;html=1;aspect=fixed;strokeWidth=3;fillColor=#CCCCCC;strokeColor=#4D4D4D;" parent="1" vertex="1">
                    <mxGeometry x="230" y="390" width="20" height="20" as="geometry"/>
                </mxCell>
                <mxCell id="8" value="" style="ellipse;whiteSpace=wrap;html=1;aspect=fixed;strokeWidth=3;fillColor=#CCCCCC;strokeColor=#4D4D4D;" parent="1" vertex="1">
                    <mxGeometry x="310" y="390" width="20" height="20" as="geometry"/>
                </mxCell>
                <mxCell id="9" value="Trunk-Based" style="text;html=1;strokeColor=none;fillColor=none;align=right;verticalAlign=middle;whiteSpace=wrap;rounded=0;shadow=0;rotation=315;fontColor=#B3B3B3;fontSize=24;" parent="1" vertex="1">
                    <mxGeometry x="192.2" y="477.81" width="146" height="20" as="geometry"/>
                </mxCell>
                <mxCell id="10" value="Git-Flow" style="text;html=1;strokeColor=none;fillColor=none;align=right;verticalAlign=middle;whiteSpace=wrap;rounded=0;shadow=0;rotation=315;fontColor=#B3B3B3;fontSize=24;" parent="1" vertex="1">
                    <mxGeometry x="140.74" y="465.27" width="116" height="20" as="geometry"/>
                </mxCell>
                <mxCell id="13" value="" style="edgeStyle=orthogonalEdgeStyle;rounded=0;orthogonalLoop=1;jettySize=auto;html=1;strokeWidth=3;fontColor=#B3B3B3;endArrow=none;endFill=0;strokeColor=#999999;" parent="1" source="KxlWeBCbH4CNowEoGFHw-8" target="KxlWeBCbH4CNowEoGFHw-12" edge="1">
                    <mxGeometry relative="1" as="geometry">
                        <mxPoint x="789.0699999999999" y="320.99" as="targetPoint"/>
                        <mxPoint x="370" y="320.99" as="sourcePoint"/>
                    </mxGeometry>
                </mxCell>
                <mxCell id="KxlWeBCbH4CNowEoGFHw-12" value="" style="ellipse;whiteSpace=wrap;html=1;aspect=fixed;strokeWidth=3;strokeColor=#0066CC;" parent="1" vertex="1">
                    <mxGeometry x="747.6399999999999" y="310.99" width="20" height="20" as="geometry"/>
                </mxCell>
                <mxCell id="17" value="" style="endArrow=none;html=1;strokeWidth=3;entryX=1;entryY=0.5;entryDx=0;entryDy=0;exitX=0;exitY=0.5;exitDx=0;exitDy=0;strokeColor=#999999;" parent="1" source="KxlWeBCbH4CNowEoGFHw-8" target="3" edge="1">
                    <mxGeometry width="50" height="50" relative="1" as="geometry">
                        <mxPoint x="350" y="320.99" as="sourcePoint"/>
                        <mxPoint x="37.00000000000796" y="320" as="targetPoint"/>
                    </mxGeometry>
                </mxCell>
                <mxCell id="3" value="" style="ellipse;whiteSpace=wrap;html=1;aspect=fixed;strokeWidth=3;strokeColor=#0066CC;" parent="1" vertex="1">
                    <mxGeometry x="110" y="310.99" width="20" height="20" as="geometry"/>
                </mxCell>
                <mxCell id="19" value="" style="ellipse;whiteSpace=wrap;html=1;aspect=fixed;strokeWidth=3;fillColor=#CCCCCC;strokeColor=#4D4D4D;" parent="1" vertex="1">
                    <mxGeometry x="1189.9999999999998" y="389.27" width="20" height="20" as="geometry"/>
                </mxCell>
                <mxCell id="20" value="Integration" style="text;html=1;strokeColor=none;fillColor=none;align=right;verticalAlign=middle;whiteSpace=wrap;rounded=0;shadow=0;rotation=315;fontColor=#B3B3B3;fontSize=24;" parent="1" vertex="1">
                    <mxGeometry x="1080.42" y="470" width="141.54" height="20" as="geometry"/>
                </mxCell>
                <mxCell id="21" style="edgeStyle=entityRelationEdgeStyle;rounded=1;orthogonalLoop=1;jettySize=auto;html=1;endArrow=none;endFill=0;strokeWidth=3;fontColor=#B3B3B3;strokeColor=#999999;" parent="1" source="KxlWeBCbH4CNowEoGFHw-46" target="19" edge="1">
                    <mxGeometry relative="1" as="geometry">
                        <mxPoint x="1170" y="400" as="sourcePoint"/>
                        <mxPoint x="1230" y="400" as="targetPoint"/>
                    </mxGeometry>
                </mxCell>
            </root>
        </mxGraphModel>
    </diagram>
</mxfile>